<svg width="7" height="12" viewBox="0 0 7 12" xmlns="http://www.w3.org/2000/svg">
<path d="M2.70717 5.97482L6.67413 1.94286C6.88285 1.72946 7 1.44078 7 1.13988C7 0.838981 6.88285 0.550307 6.67413 0.336906C6.56996 0.230152 6.44602 0.145419 6.30946 0.0875946C6.1729 0.0297705 6.02643 0 5.8785 0C5.73057 0 5.5841 0.0297705 5.44754 0.0875946C5.31098 0.145419 5.18704 0.230152 5.08287 0.336906L0.331475 5.16615C0.226442 5.27203 0.143075 5.398 0.086183 5.5368C0.0292911 5.67559 0 5.82446 0 5.97482C0 6.12517 0.0292911 6.27405 0.086183 6.41284C0.143075 6.55163 0.226442 6.67761 0.331475 6.78349L5.08287 11.6697C5.18758 11.7752 5.31176 11.8588 5.44829 11.9154C5.58482 11.9721 5.73102 12.0008 5.8785 12C6.02598 12.0008 6.17218 11.9721 6.30871 11.9154C6.44524 11.8588 6.56942 11.7752 6.67413 11.6697C6.88285 11.4563 7 11.1676 7 10.8667C7 10.5658 6.88285 10.2771 6.67413 10.0637L2.70717 5.97482Z"/>
</svg>
