<svg width="7" height="12" viewBox="0 0 7 12" xmlns="http://www.w3.org/2000/svg">
<path d="M4.29283 5.97482L0.325865 1.94286C0.11715 1.72946 0 1.44078 0 1.13988C0 0.838981 0.11715 0.550307 0.325865 0.336906C0.430041 0.230152 0.553981 0.145419 0.690538 0.0875946C0.827095 0.0297705 0.973565 0 1.1215 0C1.26943 0 1.4159 0.0297705 1.55246 0.0875946C1.68902 0.145419 1.81296 0.230152 1.91713 0.336906L6.66853 5.16615C6.77356 5.27203 6.85693 5.398 6.91382 5.5368C6.97071 5.67559 7 5.82446 7 5.97482C7 6.12517 6.97071 6.27404 6.91382 6.41284C6.85693 6.55163 6.77356 6.67761 6.66853 6.78349L1.91713 11.6697C1.81242 11.7752 1.68824 11.8588 1.55171 11.9154C1.41518 11.9721 1.26898 12.0008 1.1215 12C0.97402 12.0008 0.827822 11.9721 0.69129 11.9154C0.554757 11.8588 0.430575 11.7752 0.325865 11.6697C0.11715 11.4563 0 11.1676 0 10.8667C0 10.5658 0.11715 10.2771 0.325865 10.0637L4.29283 5.97482Z"/>
</svg>
